<svg xmlns="http://www.w3.org/2000/svg" viewBox="0 0 700 380" fill="none">
<rect width="700" height="380" fill="#0a0e17" rx="12"/><rect x="270" y="30" width="160" height="120" rx="12" fill="#1a2332" stroke="#06b6d4" stroke-width="2"/><text x="350" y="70" text-anchor="middle" fill="#06b6d4" font-size="11" font-weight="700">ESP32-C3</text><text x="350" y="90" text-anchor="middle" fill="#64748b" font-size="7">PCT_100_CTL</text><text x="350" y="108" text-anchor="middle" fill="#64748b" font-size="7">5V USB</text><rect x="40" y="30" width="100" height="60" rx="6" fill="#1a2332" stroke="#10b981" stroke-width="1.5"/><text x="90" y="56" text-anchor="middle" fill="#10b981" font-size="8" font-weight="600">DS18B20</text><text x="90" y="72" text-anchor="middle" fill="#64748b" font-size="6">温度传感器</text><rect x="40" y="110" width="100" height="60" rx="6" fill="#1a2332" stroke="#f59e0b" stroke-width="1.5"/><text x="90" y="136" text-anchor="middle" fill="#f59e0b" font-size="8" font-weight="600">光敏电阻</text><text x="90" y="152" text-anchor="middle" fill="#64748b" font-size="6">ADC</text><rect x="40" y="190" width="100" height="60" rx="6" fill="#1a2332" stroke="#94a3b8" stroke-width="1.5"/><text x="90" y="216" text-anchor="middle" fill="#94a3b8" font-size="8" font-weight="600">KEY1/2</text><rect x="40" y="270" width="100" height="60" rx="6" fill="#1a2332" stroke="#06b6d4" stroke-width="1.5"/><text x="90" y="296" text-anchor="middle" fill="#06b6d4" font-size="8" font-weight="600">OLED</text><rect x="560" y="30" width="100" height="60" rx="6" fill="#1a2332" stroke="#f43f5e" stroke-width="1.5"/><text x="610" y="56" text-anchor="middle" fill="#f43f5e" font-size="8" font-weight="600">LED</text><rect x="560" y="110" width="100" height="60" rx="6" fill="#1a2332" stroke="#f43f5e" stroke-width="1.5"/><text x="610" y="136" text-anchor="middle" fill="#f43f5e" font-size="8" font-weight="600">风扇</text><rect x="560" y="190" width="100" height="60" rx="6" fill="#1a2332" stroke="#06b6d4" stroke-width="1.5"/><text x="610" y="216" text-anchor="middle" fill="#06b6d4" font-size="8" font-weight="600">RGB</text><rect x="560" y="270" width="100" height="60" rx="6" fill="#1a2332" stroke="#06b6d4" stroke-width="1.5"/><text x="610" y="296" text-anchor="middle" fill="#06b6d4" font-size="8" font-weight="600">5V 电源</text><line x1="140" y1="60" x2="260" y2="70" stroke="#10b981" stroke-width="1.5" stroke-dasharray="4 3" opacity=".6"/><line x1="140" y1="140" x2="260" y2="100" stroke="#f59e0b" stroke-width="1.5" stroke-dasharray="4 3" opacity=".6"/><line x1="140" y1="220" x2="260" y2="130" stroke="#94a3b8" stroke-width="1.5" stroke-dasharray="4 3" opacity=".6"/><line x1="140" y1="300" x2="260" y2="130" stroke="#06b6d4" stroke-width="1.5" stroke-dasharray="4 3" opacity=".6"/><line x1="430" y1="60" x2="550" y2="60" stroke="#f43f5e" stroke-width="1.5" stroke-dasharray="4 3" opacity=".6"/><line x1="430" y1="100" x2="550" y2="140" stroke="#f43f5e" stroke-width="1.5" stroke-dasharray="4 3" opacity=".6"/><line x1="430" y1="120" x2="550" y2="220" stroke="#06b6d4" stroke-width="1.5" stroke-dasharray="4 3" opacity=".6"/><text x="350" y="360" text-anchor="middle" fill="#64748b" font-size="7">硬件接线示意图</text></svg>